<svg xmlns="http://www.w3.org/2000/svg" version="1.1" xmlns:xlink="http://www.w3.org/1999/xlink" width="1000" height="1000"><metadata><rdf:RDF xmlns:rdf="http://www.w3.org/1999/02/22-rdf-syntax-ns#" xmlns:dc="http://purl.org/dc/elements/1.1/"><rdf:Description><dc:creator>RealFaviconGenerator</dc:creator><dc:source>https://realfavicongenerator.net</dc:source></rdf:Description></rdf:RDF></metadata><style>
    #light-icon {
      display: inline;
    }
    #dark-icon {
      display: none;
    }

    @media (prefers-color-scheme: dark) {
      #light-icon {
        display: none;
      }
      #dark-icon {
        display: inline;
      }
    }
  </style><g id="light-icon"><svg xmlns="http://www.w3.org/2000/svg" version="1.1" xmlns:xlink="http://www.w3.org/1999/xlink" width="1000" height="1000"><g><g transform="matrix(2.3923444976076556,0,0,2.3923444976076556,0,217.70334928229664)" style="filter: contrast(1) brightness(1)"><svg xmlns="http://www.w3.org/2000/svg" xmlns:xlink="http://www.w3.org/1999/xlink" viewBox="0 0 418 236" width="418" height="236"><defs><style>.cls-1{fill:#1d6332;}.cls-2,.cls-6{fill:#f78e20;}.cls-3{fill:#5c5d28;}.cls-4,.cls-5,.cls-6{stroke-miterlimit:10;stroke-width:1.89px;}.cls-4{fill:url(#linear-gradient);stroke:url(#linear-gradient-2);}.cls-5{fill:url(#linear-gradient-3);stroke:url(#linear-gradient-4);}.cls-6{stroke:#cf8129;}</style><linearGradient id="linear-gradient" x1="205.31" y1="109.35" x2="261.26" y2="109.35" gradientUnits="userSpaceOnUse"><stop offset="0" stop-color="#f4c22e"></stop><stop offset="0" stop-color="#ecc33e"></stop><stop offset="0.32" stop-color="#fcf38f"></stop><stop offset="0.68" stop-color="#dcac26"></stop><stop offset="1" stop-color="#faf399"></stop></linearGradient><linearGradient id="linear-gradient-2" x1="204.26" y1="109.35" x2="262.21" y2="109.35" xlink:href="#linear-gradient"></linearGradient><linearGradient id="linear-gradient-3" x1="271.51" y1="126.62" x2="324.61" y2="126.62" xlink:href="#linear-gradient"></linearGradient><linearGradient id="linear-gradient-4" x1="270.56" y1="126.62" x2="325.56" y2="126.62" xlink:href="#linear-gradient"></linearGradient></defs><g id="Layer_2" data-name="Layer 2"><g id="Layer_1-2" data-name="Layer 1"><path class="cls-1" d="M179.07,103.21a104.15,104.15,0,0,0,25.79,87.2,104.54,104.54,0,0,0,24.75,19.75,110.07,110.07,0,0,0,14.27,7c2.43,1.05,5,1.84,7.46,2.74,2.54.73,5.06,1.56,7.65,2.13a100.31,100.31,0,0,0,31.49,2.56,103.65,103.65,0,0,0,57.4-22.49l0-.06a111.31,111.31,0,0,1-57.6,17.21,117.22,117.22,0,0,1-29.7-3.5c-2.44-.53-4.8-1.33-7.2-2-2.34-.85-4.72-1.59-7-2.59A93.93,93.93,0,0,1,233,204.46,99.51,99.51,0,0,1,220.72,196a105.78,105.78,0,0,1-11-10.09,104.05,104.05,0,0,1-9.63-11.42,99,99,0,0,1-8-12.65,99.94,99.94,0,0,1-6.23-13.69,103.34,103.34,0,0,1-4.32-14.5,113.09,113.09,0,0,1-2.25-15,126.49,126.49,0,0,1-.22-15.34"></path><path class="cls-1" d="M233.58,217.74a118,118,0,0,0,26.47,8.84,121.34,121.34,0,0,0,13.81,1.93l3.47.29c1.16.07,2.33.08,3.49.12,2.32.12,4.64.05,7,0A115,115,0,0,0,340.85,214c1.8-1,3.56-2.07,5.29-3.18,11.61-17.6,31.09-60.16.06-118,0,0,38.62,51.7,14.8,106.66l2.14-2a114.85,114.85,0,0,0,17.63-21.39,119.36,119.36,0,0,0,12-25A115.94,115.94,0,0,0,398.33,124a113.11,113.11,0,0,0-1.07-27.75,117.55,117.55,0,0,0-21.58-51,121.87,121.87,0,0,0-9-10.81,120.47,120.47,0,0,0-10.32-9.62A118.1,118.1,0,0,0,332.61,9.39a123.24,123.24,0,0,0-27-9.39,118.28,118.28,0,0,1,27.77,7.59A116.24,116.24,0,0,1,358.59,22a117.14,117.14,0,0,1,46.58,102.5,121.73,121.73,0,0,1-5.63,28.89A118.73,118.73,0,0,1,387,180a121.51,121.51,0,0,1-42.5,40.31A119.19,119.19,0,0,1,288,236a117.62,117.62,0,0,1-56.89-13.23,106.45,106.45,0,0,1-42-39.31c12.51,14.53,27.54,26.45,44.54,34.31"></path><path class="cls-1" d="M377.48,197.81s19.27-19.41,29.94-39.68c0,0-1.74,28-29.94,39.68"></path><path class="cls-2" d="M330.36,6.7s-.25,1.71-3.8.63c-2.31-.71-2.44-2.55-6.44-4.56a30,30,0,0,0,5.44,1.28c2.5.34,5.07.78,4.8,2.65"></path><path class="cls-2" d="M401.05,116.79s4-13.4-20.35-24.59c0,0,.3,21.18,20.35,24.59"></path><path class="cls-2" d="M397.27,94.86s2.53-12.47-20.5-20.69c0,0,2.05,19.19,20.5,20.69"></path><path class="cls-2" d="M392.78,73.56s.21-11.51-21.65-15.28c0,0,5,16.8,21.65,15.28"></path><path class="cls-2" d="M383.59,54.41S382.28,43,360.13,41.91c0,0,7.14,16.06,23.46,12.5"></path><path class="cls-2" d="M371.66,38.51s-3.15-11.12-25.18-8.76c0,0,9.65,14.78,25.18,8.76"></path><path class="cls-2" d="M359.5,26.15s-3.1-7.52-18.27-4.2c0,0,7.92,9.58,18.27,4.2"></path><path class="cls-2" d="M398.53,138.41s6.28-12.76-16.25-27.77c0,0-3.24,21.21,16.25,27.77"></path><path class="cls-2" d="M403.91,129.18S395.66,116.65,417,98.42c0,0,6.24,21.66-13.13,30.76"></path><path class="cls-2" d="M399.33,150.52s-5.93-13.69,18.37-28.1c0,0,2.33,22.37-18.37,28.1"></path><path class="cls-2" d="M404.56,107.09s-10.37-10.19,6-31.58c0,0,10.38,19.21-6,31.58"></path><path class="cls-2" d="M399.73,84.58s-9.14-7.17,1.78-25.52c0,0,10,14.3-1.78,25.52"></path><path class="cls-2" d="M393.85,67.16s-11.15-3.58-7.64-24.53c0,0,14.54,10,7.64,24.53"></path><path class="cls-2" d="M381.45,46.13s-8.19-2-6.73-17.27c0,0,10.95,6.48,6.73,17.27"></path><path class="cls-2" d="M370.19,31.82s-8.31-.66-9.51-15.73c0,0,11.76,4.53,9.51,15.73"></path><path class="cls-2" d="M359,22.3s-5.62.41-8.06-9.54c0,0,8.34,1.82,8.06,9.54"></path><path class="cls-2" d="M347.3,18s-3.22-6.26-16-2.34c0,0,7.52,7.69,16,2.34"></path><path class="cls-2" d="M350.51,17.34s-4.84.49-7.21-8c0,0,7.25,1.37,7.21,8"></path><path class="cls-2" d="M337.52,12.14s-2.87-5.6-14.34-2.11c0,0,6.73,6.9,14.34,2.11"></path><path class="cls-2" d="M342.64,13s-4.69,1.23-8.43-6.83c0,0,7.38.23,8.43,6.83"></path><path class="cls-1" d="M201.8,156.87a90,90,0,0,0,13.39,21.73c53.09,3.93,82.54,28.77,85.15,30.5h0l.13.08-.08-.1c-23.36-31.54-66.16-45.93-98.6-52.21"></path><path class="cls-1" d="M224,187.33c16,14,39.24,23.34,61.76,22.26.4,0,.77,0,1.17-.08l.06,0c-21.81-14.75-46.86-20.82-63-22.13"></path><path class="cls-1" d="M276.08,181.35c35.68-9.92,60.35-2.55,70,1.51A99.81,99.81,0,0,0,357,169.25l0,0a23.54,23.54,0,0,1,1.41-3.24c-58.87-13.38-82.34,15.36-82.34,15.36"></path><path class="cls-1" d="M286.29,185.61c10.2,7,15.49,14,21.95,21.08a90.36,90.36,0,0,0,30.67-17.06c-24.51-9.4-45.48-6.12-52.62-4"></path><path class="cls-3" d="M316.42,48.09s67.16,34.58,60,112.1c0,0,16-74.49-60-112.1"></path><path class="cls-2" d="M354.48,79.63S352.24,73,339.89,74c0,0,6.06,8.87,14.59,5.68"></path><path class="cls-2" d="M345.17,71.52s-2.21-6-13.12-4.65c0,0,5.67,7.94,13.12,4.65"></path><path class="cls-2" d="M337.64,64.23s-2.52-5.9-13.19-3.81c0,0,6,7.64,13.19,3.81"></path><path class="cls-2" d="M365.7,94.91s-6.51-5-.62-17.87c0,0,7.56,10,.62,17.87"></path><path class="cls-2" d="M369.58,106.1s-5.78-5.93,2.1-17.41c0,0,6.09,10.94-2.1,17.41"></path><path class="cls-2" d="M359.4,84.94s-6.73-3.94-3-17.34c0,0,8.39,8.66,3,17.34"></path><path class="cls-2" d="M352.79,74.12s-6-1.54-6.08-12.76c0,0,8.25,4.82,6.08,12.76"></path><path class="cls-2" d="M345.22,67s-5.9-.18-8.46-11.54c0,0,8.76,3,8.46,11.54"></path><path class="cls-2" d="M336,60.23s-4.21.29-6.81-7.73c0,0,6.44,1.52,6.81,7.73"></path><path class="cls-2" d="M316.61,48.4s-.08.85-1.65.28c-1-.38-1.11-1.29-2.89-2.32a12.6,12.6,0,0,0,2.4.68c1.1.19,2.23.44,2.14,1.36"></path><path class="cls-2" d="M329.66,58.32s-1.48-3.76-8.05-2.26c0,0,3.62,4.82,8.05,2.26"></path><path class="cls-2" d="M329.38,56.4s-2.45.15-3.68-4.8a5.09,5.09,0,0,1,3.68,4.8"></path><path class="cls-2" d="M324.19,54.14s-1.51-3.13-7-1.32c0,0,3.41,3.89,7,1.32"></path><path class="cls-2" d="M325.59,53.87s-2.11.19-3.28-4a4.36,4.36,0,0,1,3.28,4"></path><path class="cls-2" d="M319.83,51.17s-1.35-2.81-6.3-1.19c0,0,3.05,3.48,6.3,1.19"></path><path class="cls-2" d="M322.08,51.63s-2,.57-3.8-3.46a4.18,4.18,0,0,1,3.8,3.46"></path><path class="cls-1" d="M87.4,44.46,87,56.24c-8.51-.69-21.17-.69-37.64-.69-1.63,44.8-3.8,95.15-3.8,143H33.11c2.54-47.8,3.44-95.61,4.89-142.95-19,0-26.24.69-38,.69L.36,44.46Z"></path><path class="cls-1" d="M103.87,155c1.11-10.47,1.36-25.5,2.22-37.45l-.24-.25c-8.52,9.24-38,6.9-38,23.29,0,8.5,8.15,11,15.19,11a41,41,0,0,0,14-2.59l-1.36,5.92a58.59,58.59,0,0,1-13,1.48c-6.42,0-22.23-.25-22.23-15.4,0-26.12,45.69-16,45.69-33.64,0-8.13-9.38-9.73-15.68-9.73a53.09,53.09,0,0,0-21.86,4.56l.87-6.28A81.38,81.38,0,0,1,89.3,92.74c16.92,0,24.2,4.68,24.2,15.4,0,10.35-1.85,27.1-1.85,46.81Z"></path><path class="cls-1" d="M170.14,157.05c1.11-10.47,1.36-25.5,2.22-37.45l-.24-.25c-8.52,9.24-38,6.9-38,23.28,0,8.51,8.15,11,15.19,11a41.26,41.26,0,0,0,14-2.59l-1.36,5.92a58.57,58.57,0,0,1-13,1.47c-6.42,0-22.23-.24-22.23-15.4,0-26.11,45.69-16,45.69-33.63,0-8.13-9.38-9.73-15.68-9.73a53.09,53.09,0,0,0-21.86,4.56l.87-6.29a81.86,81.86,0,0,1,19.88-3.08c16.92,0,24.2,4.69,24.2,15.4,0,10.35-1.85,27.11-1.85,46.82Z"></path><path class="cls-4" d="M205.31,146.77c8.18,3.86,16.66,6.53,25.89,6.53,10.12,0,20.84-4.9,20.84-16.33,0-19.15-43.31-32.81-43.31-55.08,0-10.84,7.14-23.61,28.57-23.61a98.11,98.11,0,0,1,20.09,2.08l.9,8.76a57.3,57.3,0,0,0-20.09-3.71C228.67,65.41,218,70.16,218,81c0,19,43.3,32.06,43.3,55.67,0,17.52-15.18,23.75-30.51,23.75-8.78,0-16.52-1.93-24.85-4.45Z"></path><path class="cls-5" d="M315,157.05c1.11-10.47,1.36-25.5,2.22-37.45l-.25-.25c-8.52,9.24-38,6.9-38,23.28,0,8.51,8.15,11,15.19,11A41.21,41.21,0,0,0,308.06,151l-1.36,5.92a58.42,58.42,0,0,1-13,1.47c-6.43,0-22.23-.24-22.23-15.4,0-26.11,45.69-16,45.69-33.63,0-8.13-9.38-9.73-15.68-9.73a53.06,53.06,0,0,0-21.86,4.56l.86-6.29a82,82,0,0,1,19.89-3.08c16.91,0,24.2,4.69,24.2,15.4,0,10.35-1.85,27.11-1.85,46.82Z"></path><path class="cls-6" d="M88.47,195.41H85.59c-2.65-4.72-5.83-9.14-8.78-13.67a15.39,15.39,0,0,0,2.61.26c3.6,0,6.93-1.73,6.93-5.7,0-3-1.93-4.27-5.19-4.27h-5.6c-.23,7.78-.68,15.15-.68,23.38H72.23c.6-8.54,1-16.77,1-25.19h8.71c4.16,0,6.77,1.78,6.77,5.7,0,4.91-3.63,7.37-8.47,7.37Z"></path><path class="cls-6" d="M105.12,170.22c-.49,8.38-.68,16.8-.87,25.19H101.6c.49-8.2.91-16.24.91-25.19Z"></path><path class="cls-6" d="M139,172.71a20.74,20.74,0,0,0-6.25-1.05c-7,0-11.54,4.6-11.54,11.55,0,6.53,4,10.8,10.6,10.8a23.27,23.27,0,0,0,6.85-1.17l-.34,2.19a30.46,30.46,0,0,1-6.4.79c-7.68,0-13.06-4.45-13.06-12.35,0-8.57,5.38-13.63,13.89-13.63a29.14,29.14,0,0,1,6.06.65Z"></path><path class="cls-6" d="M155.16,181.66H166.9l-.08,1.81H155.09l-.38,10.12h5.83c2.65,0,3.82,0,7.08-.15l-.12,2H152.14c.64-8.58.91-15.11,1-25.19h15.37l-.12,1.93c-1.77-.12-2.53-.12-3.78-.12h-9.05Z"></path></g></g></svg></g></g></svg></g><g id="dark-icon"><svg xmlns="http://www.w3.org/2000/svg" version="1.1" xmlns:xlink="http://www.w3.org/1999/xlink" width="1000" height="1000"><g clip-path="url(#SvgjsClipPath1824)"><rect width="1000" height="1000" fill="#ffffff"></rect><g transform="matrix(2.15311004784689,0,0,2.15311004784689,50,245.93301435406698)"><svg xmlns="http://www.w3.org/2000/svg" xmlns:xlink="http://www.w3.org/1999/xlink" viewBox="0 0 418 236" width="418" height="236"><defs><style>.cls-1{fill:#1d6332;}.cls-2,.cls-6{fill:#f78e20;}.cls-3{fill:#5c5d28;}.cls-4,.cls-5,.cls-6{stroke-miterlimit:10;stroke-width:1.89px;}.cls-4{fill:url(#linear-gradient);stroke:url(#linear-gradient-2);}.cls-5{fill:url(#linear-gradient-3);stroke:url(#linear-gradient-4);}.cls-6{stroke:#cf8129;}</style><linearGradient id="linear-gradient" x1="205.31" y1="109.35" x2="261.26" y2="109.35" gradientUnits="userSpaceOnUse"><stop offset="0" stop-color="#f4c22e"></stop><stop offset="0" stop-color="#ecc33e"></stop><stop offset="0.32" stop-color="#fcf38f"></stop><stop offset="0.68" stop-color="#dcac26"></stop><stop offset="1" stop-color="#faf399"></stop></linearGradient><linearGradient id="linear-gradient-2" x1="204.26" y1="109.35" x2="262.21" y2="109.35" xlink:href="#linear-gradient"></linearGradient><linearGradient id="linear-gradient-3" x1="271.51" y1="126.62" x2="324.61" y2="126.62" xlink:href="#linear-gradient"></linearGradient><linearGradient id="linear-gradient-4" x1="270.56" y1="126.62" x2="325.56" y2="126.62" xlink:href="#linear-gradient"></linearGradient><clipPath id="SvgjsClipPath1824"><rect width="1000" height="1000" x="0" y="0" rx="500" ry="500"></rect></clipPath></defs><g id="Layer_2" data-name="Layer 2"><g id="Layer_1-2" data-name="Layer 1"><path class="cls-1" d="M179.07,103.21a104.15,104.15,0,0,0,25.79,87.2,104.54,104.54,0,0,0,24.75,19.75,110.07,110.07,0,0,0,14.27,7c2.43,1.05,5,1.84,7.46,2.74,2.54.73,5.06,1.56,7.65,2.13a100.31,100.31,0,0,0,31.49,2.56,103.65,103.65,0,0,0,57.4-22.49l0-.06a111.31,111.31,0,0,1-57.6,17.21,117.22,117.22,0,0,1-29.7-3.5c-2.44-.53-4.8-1.33-7.2-2-2.34-.85-4.72-1.59-7-2.59A93.93,93.93,0,0,1,233,204.46,99.51,99.51,0,0,1,220.72,196a105.78,105.78,0,0,1-11-10.09,104.05,104.05,0,0,1-9.63-11.42,99,99,0,0,1-8-12.65,99.94,99.94,0,0,1-6.23-13.69,103.34,103.34,0,0,1-4.32-14.5,113.09,113.09,0,0,1-2.25-15,126.49,126.49,0,0,1-.22-15.34"></path><path class="cls-1" d="M233.58,217.74a118,118,0,0,0,26.47,8.84,121.34,121.34,0,0,0,13.81,1.93l3.47.29c1.16.07,2.33.08,3.49.12,2.32.12,4.64.05,7,0A115,115,0,0,0,340.85,214c1.8-1,3.56-2.07,5.29-3.18,11.61-17.6,31.09-60.16.06-118,0,0,38.62,51.7,14.8,106.66l2.14-2a114.85,114.85,0,0,0,17.63-21.39,119.36,119.36,0,0,0,12-25A115.94,115.94,0,0,0,398.33,124a113.11,113.11,0,0,0-1.07-27.75,117.55,117.55,0,0,0-21.58-51,121.87,121.87,0,0,0-9-10.81,120.47,120.47,0,0,0-10.32-9.62A118.1,118.1,0,0,0,332.61,9.39a123.24,123.24,0,0,0-27-9.39,118.28,118.28,0,0,1,27.77,7.59A116.24,116.24,0,0,1,358.59,22a117.14,117.14,0,0,1,46.58,102.5,121.73,121.73,0,0,1-5.63,28.89A118.73,118.73,0,0,1,387,180a121.51,121.51,0,0,1-42.5,40.31A119.19,119.19,0,0,1,288,236a117.62,117.62,0,0,1-56.89-13.23,106.45,106.45,0,0,1-42-39.31c12.51,14.53,27.54,26.45,44.54,34.31"></path><path class="cls-1" d="M377.48,197.81s19.27-19.41,29.94-39.68c0,0-1.74,28-29.94,39.68"></path><path class="cls-2" d="M330.36,6.7s-.25,1.71-3.8.63c-2.31-.71-2.44-2.55-6.44-4.56a30,30,0,0,0,5.44,1.28c2.5.34,5.07.78,4.8,2.65"></path><path class="cls-2" d="M401.05,116.79s4-13.4-20.35-24.59c0,0,.3,21.18,20.35,24.59"></path><path class="cls-2" d="M397.27,94.86s2.53-12.47-20.5-20.69c0,0,2.05,19.19,20.5,20.69"></path><path class="cls-2" d="M392.78,73.56s.21-11.51-21.65-15.28c0,0,5,16.8,21.65,15.28"></path><path class="cls-2" d="M383.59,54.41S382.28,43,360.13,41.91c0,0,7.14,16.06,23.46,12.5"></path><path class="cls-2" d="M371.66,38.51s-3.15-11.12-25.18-8.76c0,0,9.65,14.78,25.18,8.76"></path><path class="cls-2" d="M359.5,26.15s-3.1-7.52-18.27-4.2c0,0,7.92,9.58,18.27,4.2"></path><path class="cls-2" d="M398.53,138.41s6.28-12.76-16.25-27.77c0,0-3.24,21.21,16.25,27.77"></path><path class="cls-2" d="M403.91,129.18S395.66,116.65,417,98.42c0,0,6.24,21.66-13.13,30.76"></path><path class="cls-2" d="M399.33,150.52s-5.93-13.69,18.37-28.1c0,0,2.33,22.37-18.37,28.1"></path><path class="cls-2" d="M404.56,107.09s-10.37-10.19,6-31.58c0,0,10.38,19.21-6,31.58"></path><path class="cls-2" d="M399.73,84.58s-9.14-7.17,1.78-25.52c0,0,10,14.3-1.78,25.52"></path><path class="cls-2" d="M393.85,67.16s-11.15-3.58-7.64-24.53c0,0,14.54,10,7.64,24.53"></path><path class="cls-2" d="M381.45,46.13s-8.19-2-6.73-17.27c0,0,10.95,6.48,6.73,17.27"></path><path class="cls-2" d="M370.19,31.82s-8.31-.66-9.51-15.73c0,0,11.76,4.53,9.51,15.73"></path><path class="cls-2" d="M359,22.3s-5.62.41-8.06-9.54c0,0,8.34,1.82,8.06,9.54"></path><path class="cls-2" d="M347.3,18s-3.22-6.26-16-2.34c0,0,7.52,7.69,16,2.34"></path><path class="cls-2" d="M350.51,17.34s-4.84.49-7.21-8c0,0,7.25,1.37,7.21,8"></path><path class="cls-2" d="M337.52,12.14s-2.87-5.6-14.34-2.11c0,0,6.73,6.9,14.34,2.11"></path><path class="cls-2" d="M342.64,13s-4.69,1.23-8.43-6.83c0,0,7.38.23,8.43,6.83"></path><path class="cls-1" d="M201.8,156.87a90,90,0,0,0,13.39,21.73c53.09,3.93,82.54,28.77,85.15,30.5h0l.13.08-.08-.1c-23.36-31.54-66.16-45.93-98.6-52.21"></path><path class="cls-1" d="M224,187.33c16,14,39.24,23.34,61.76,22.26.4,0,.77,0,1.17-.08l.06,0c-21.81-14.75-46.86-20.82-63-22.13"></path><path class="cls-1" d="M276.08,181.35c35.68-9.92,60.35-2.55,70,1.51A99.81,99.81,0,0,0,357,169.25l0,0a23.54,23.54,0,0,1,1.41-3.24c-58.87-13.38-82.34,15.36-82.34,15.36"></path><path class="cls-1" d="M286.29,185.61c10.2,7,15.49,14,21.95,21.08a90.36,90.36,0,0,0,30.67-17.06c-24.51-9.4-45.48-6.12-52.62-4"></path><path class="cls-3" d="M316.42,48.09s67.16,34.58,60,112.1c0,0,16-74.49-60-112.1"></path><path class="cls-2" d="M354.48,79.63S352.24,73,339.89,74c0,0,6.06,8.87,14.59,5.68"></path><path class="cls-2" d="M345.17,71.52s-2.21-6-13.12-4.65c0,0,5.67,7.94,13.12,4.65"></path><path class="cls-2" d="M337.64,64.23s-2.52-5.9-13.19-3.81c0,0,6,7.64,13.19,3.81"></path><path class="cls-2" d="M365.7,94.91s-6.51-5-.62-17.87c0,0,7.56,10,.62,17.87"></path><path class="cls-2" d="M369.58,106.1s-5.78-5.93,2.1-17.41c0,0,6.09,10.94-2.1,17.41"></path><path class="cls-2" d="M359.4,84.94s-6.73-3.94-3-17.34c0,0,8.39,8.66,3,17.34"></path><path class="cls-2" d="M352.79,74.12s-6-1.54-6.08-12.76c0,0,8.25,4.82,6.08,12.76"></path><path class="cls-2" d="M345.22,67s-5.9-.18-8.46-11.54c0,0,8.76,3,8.46,11.54"></path><path class="cls-2" d="M336,60.23s-4.21.29-6.81-7.73c0,0,6.44,1.52,6.81,7.73"></path><path class="cls-2" d="M316.61,48.4s-.08.85-1.65.28c-1-.38-1.11-1.29-2.89-2.32a12.6,12.6,0,0,0,2.4.68c1.1.19,2.23.44,2.14,1.36"></path><path class="cls-2" d="M329.66,58.32s-1.48-3.76-8.05-2.26c0,0,3.62,4.82,8.05,2.26"></path><path class="cls-2" d="M329.38,56.4s-2.45.15-3.68-4.8a5.09,5.09,0,0,1,3.68,4.8"></path><path class="cls-2" d="M324.19,54.14s-1.51-3.13-7-1.32c0,0,3.41,3.89,7,1.32"></path><path class="cls-2" d="M325.59,53.87s-2.11.19-3.28-4a4.36,4.36,0,0,1,3.28,4"></path><path class="cls-2" d="M319.83,51.17s-1.35-2.81-6.3-1.19c0,0,3.05,3.48,6.3,1.19"></path><path class="cls-2" d="M322.08,51.63s-2,.57-3.8-3.46a4.18,4.18,0,0,1,3.8,3.46"></path><path class="cls-1" d="M87.4,44.46,87,56.24c-8.51-.69-21.17-.69-37.64-.69-1.63,44.8-3.8,95.15-3.8,143H33.11c2.54-47.8,3.44-95.61,4.89-142.95-19,0-26.24.69-38,.69L.36,44.46Z"></path><path class="cls-1" d="M103.87,155c1.11-10.47,1.36-25.5,2.22-37.45l-.24-.25c-8.52,9.24-38,6.9-38,23.29,0,8.5,8.15,11,15.19,11a41,41,0,0,0,14-2.59l-1.36,5.92a58.59,58.59,0,0,1-13,1.48c-6.42,0-22.23-.25-22.23-15.4,0-26.12,45.69-16,45.69-33.64,0-8.13-9.38-9.73-15.68-9.73a53.09,53.09,0,0,0-21.86,4.56l.87-6.28A81.38,81.38,0,0,1,89.3,92.74c16.92,0,24.2,4.68,24.2,15.4,0,10.35-1.85,27.1-1.85,46.81Z"></path><path class="cls-1" d="M170.14,157.05c1.11-10.47,1.36-25.5,2.22-37.45l-.24-.25c-8.52,9.24-38,6.9-38,23.28,0,8.51,8.15,11,15.19,11a41.26,41.26,0,0,0,14-2.59l-1.36,5.92a58.57,58.57,0,0,1-13,1.47c-6.42,0-22.23-.24-22.23-15.4,0-26.11,45.69-16,45.69-33.63,0-8.13-9.38-9.73-15.68-9.73a53.09,53.09,0,0,0-21.86,4.56l.87-6.29a81.86,81.86,0,0,1,19.88-3.08c16.92,0,24.2,4.69,24.2,15.4,0,10.35-1.85,27.11-1.85,46.82Z"></path><path class="cls-4" d="M205.31,146.77c8.18,3.86,16.66,6.53,25.89,6.53,10.12,0,20.84-4.9,20.84-16.33,0-19.15-43.31-32.81-43.31-55.08,0-10.84,7.14-23.61,28.57-23.61a98.11,98.11,0,0,1,20.09,2.08l.9,8.76a57.3,57.3,0,0,0-20.09-3.71C228.67,65.41,218,70.16,218,81c0,19,43.3,32.06,43.3,55.67,0,17.52-15.18,23.75-30.51,23.75-8.78,0-16.52-1.93-24.85-4.45Z"></path><path class="cls-5" d="M315,157.05c1.11-10.47,1.36-25.5,2.22-37.45l-.25-.25c-8.52,9.24-38,6.9-38,23.28,0,8.51,8.15,11,15.19,11A41.21,41.21,0,0,0,308.06,151l-1.36,5.92a58.42,58.42,0,0,1-13,1.47c-6.43,0-22.23-.24-22.23-15.4,0-26.11,45.69-16,45.69-33.63,0-8.13-9.38-9.73-15.68-9.73a53.06,53.06,0,0,0-21.86,4.56l.86-6.29a82,82,0,0,1,19.89-3.08c16.91,0,24.2,4.69,24.2,15.4,0,10.35-1.85,27.11-1.85,46.82Z"></path><path class="cls-6" d="M88.47,195.41H85.59c-2.65-4.72-5.83-9.14-8.78-13.67a15.39,15.39,0,0,0,2.61.26c3.6,0,6.93-1.73,6.93-5.7,0-3-1.93-4.27-5.19-4.27h-5.6c-.23,7.78-.68,15.15-.68,23.38H72.23c.6-8.54,1-16.77,1-25.19h8.71c4.16,0,6.77,1.78,6.77,5.7,0,4.91-3.63,7.37-8.47,7.37Z"></path><path class="cls-6" d="M105.12,170.22c-.49,8.38-.68,16.8-.87,25.19H101.6c.49-8.2.91-16.24.91-25.19Z"></path><path class="cls-6" d="M139,172.71a20.74,20.74,0,0,0-6.25-1.05c-7,0-11.54,4.6-11.54,11.55,0,6.53,4,10.8,10.6,10.8a23.27,23.27,0,0,0,6.85-1.17l-.34,2.19a30.46,30.46,0,0,1-6.4.79c-7.68,0-13.06-4.45-13.06-12.35,0-8.57,5.38-13.63,13.89-13.63a29.14,29.14,0,0,1,6.06.65Z"></path><path class="cls-6" d="M155.16,181.66H166.9l-.08,1.81H155.09l-.38,10.12h5.83c2.65,0,3.82,0,7.08-.15l-.12,2H152.14c.64-8.58.91-15.11,1-25.19h15.37l-.12,1.93c-1.77-.12-2.53-.12-3.78-.12h-9.05Z"></path></g></g></svg></g></g></svg></g></svg>