<svg id="Layer_1" data-name="Layer 1" xmlns="http://www.w3.org/2000/svg" viewBox="0 0 500 500"><defs><style>.cls-1{fill:#055e05;}.cls-2{fill:#f86f1b;}</style></defs><path class="cls-1" d="M333.19,368.74c-8.74.25-17.38-1.34-25.93-3.62-2.2-.59-3.26-1.41-2.87-3.91,1.29-8.15,2.44-16.33,3.54-24.51.32-2.37,1.77-2.65,3.75-2.84,2.38-.24,2.28,1.42,2.63,2.81,1.59,6.4,3.15,12.8,4.75,19.2.28,1.14.31,2.23,1.73,3,7.56,4.1,22.55,2.22,28.88-3.79a18.11,18.11,0,0,0,.31-25.89c-3.73-3.85-8.51-6-13.16-8.41-7.1-3.61-14.65-6.47-20.85-11.63-18.41-15.29-14.61-43,7.19-53.1,12.14-5.61,24.82-5.65,37.68-3.75,3.8.56,7.55,1.52,11.35,2.15,1.9.32,2.52.94,2.09,3-1.51,7.28-2.95,14.57-4.08,21.9-.38,2.52-1.91,2.58-3.63,2.91-2.39.45-1.85-1.7-2.15-2.71-1.62-5.39-3.05-10.84-4.47-16.28-.4-1.55-.87-2.83-2.66-3.26-7.91-1.93-15.6-2.12-22.55,2.93a16.84,16.84,0,0,0-2.31,25.63c3.65,3.87,8.18,6.46,12.94,8.71,7,3.29,14,6.51,20.31,11,19.14,13.51,17.25,44.94-6.59,55.53A58,58,0,0,1,333.19,368.74Z"/><path class="cls-1" d="M80,253c15.45,0,30.91.09,46.36-.07,3.15,0,3.7,1,3.16,3.77q-2.28,11.74-4.23,23.56c-.4,2.42-1.51,3.54-3.92,3.66-2.87.13-1.91-2.38-2.24-3.57-1.44-5.15-2.5-10.41-3.65-15.64-.38-1.76-.92-2.95-3.17-2.89-6.07.15-12.14.12-18.21,0-2,0-2.58.62-2.58,2.58q.08,45.3,0,90.59c0,2.22.83,3.55,3.15,4.1,3.2.77,6.3,2,9.52,2.68,1.94.42,2.42,1.39,2.34,3.12-.1,2.07-1.63,1.5-2.73,1.51-16.28,0-32.56,0-48.85.05-1.55,0-2.52-.14-2.83-2s.62-2.25,2.14-2.61c3.21-.78,6.33-1.88,9.54-2.65a3.74,3.74,0,0,0,3.26-4.06c0-2.75.17-5.51.17-8.27,0-26.74-.09-53.49,0-80.24,0-3.54-.6-5.17-4.64-4.86a135.15,135.15,0,0,1-15.72,0c-2.43-.1-3.42.87-4.09,3-1.72,5.37-3.8,10.62-5.32,16-.76,2.72-2.66,3.08-4.61,3s-1.08-2.19-1.17-3.32c-.65-8.1-1-16.23-1.74-24.33-.24-2.78.83-3.14,3.24-3.13,15.59.1,31.18.05,46.77.05Z"/><path class="cls-2" d="M193.19,332.12c0,6.89-.08,13.79,0,20.69.09,5.21,2.1,7.1,7.13,7.76,1.59.2,4.12-1.31,4.65,1.84.63,3.67-2.57,3.07-4.33,3.54-7.17,1.9-14.35,4.14-21.87,1.31-2.44-.91-4.7-2.13-5.82-4.35-1.5-3-2.83-2.06-4.86-.68-11.23,7.6-22.89,8.73-35,2-7.19-4-9.66-10.44-9.37-18.34.27-7.58,3.89-13.12,10.38-16.65,9.83-5.36,20.72-6.38,31.63-6.59,4.06-.08,5-1.29,4.94-5.17-.16-7-1-13.42-8.5-16.3-4.43-1.7-9.18-1.65-13.9-1a72.45,72.45,0,0,0-12.13,2.46c-2.11.66-3.53.33-3.88-2.06-.27-1.83-1.69-3.55,1.51-4.9a78.44,78.44,0,0,1,37.1-6.33c13.49,1,22.29,10.31,22.44,23.78.07,6.34,0,12.68,0,19Zm-22.74,10.75h0a10.11,10.11,0,0,0,0-2.06c-.74-3.4,2.24-8.21-1.55-10-3.18-1.5-7.58-.31-11.33.79s-7.2,2.67-8.94,6.6c-2.48,5.58-1.71,12.26,1.93,15.86s11.42,4.56,16.7,2.39c2.32-.95,3.47-2.25,3.24-4.91C170.26,348.67,170.45,345.76,170.45,342.87Z"/><path class="cls-2" d="M457.89,332.42c0,6.47-.08,12.95,0,19.43s1.9,8.22,8.33,8.73c1.5.12,3.4-.54,3.72,2.09.36,2.92-1.85,2.45-3.41,3a54.23,54.23,0,0,1-15.37,2.92c-5.82.14-11-1.37-14.15-6.74-1.51-2.6-2.49-.55-3.47.12-6.93,4.69-14.42,7.59-22.88,6.43-8.69-1.19-16.65-3.86-20.56-12.88A20.32,20.32,0,0,1,399.35,329c9.8-5.13,20.52-6.13,31.27-6.38,4.08-.1,5-1.32,4.95-5.14-.11-6.68-1-12.77-7.78-16-3.94-1.88-8.27-1.94-12.57-1.59a78.68,78.68,0,0,0-15,2.84c-1.85.53-2.75-.18-2.89-1.77s-2.39-3.77.53-5c14-5.78,28.3-9.29,43.42-5.38,10.78,2.79,16.72,10.67,16.95,21.95.14,6.61,0,13.23,0,19.85ZM435.33,343a12,12,0,0,0,0-2.88c-.8-3.18,2.27-7.77-1.71-9.39-3-1.23-7-.39-10.52.66-3.86,1.16-7.59,2.43-9.5,6.47-2.48,5.27-1.83,12.22,1.57,15.87,3.54,3.82,11.31,4.92,16.9,2.69,2.54-1,3.63-2.39,3.35-5.19A77.85,77.85,0,0,1,435.33,343Z"/><path class="cls-2" d="M281.66,331.92c0,6.61-.1,13.23,0,19.84.12,6.32,2.11,8.27,8.38,8.8,1.56.13,3.4-.32,3.73,2.18s-1.61,2.39-3.11,2.85c-5.42,1.64-10.9,3.07-16.62,2.94C268.79,368.4,264,367,261.16,362c-1.37-2.42-2.45-1-3.84-.05-8.57,6-17.8,8.19-28.15,5.37s-16-9.06-16.65-18.79,4.28-17.24,13.84-21.08c8.95-3.6,18.4-4.44,27.91-4.95,6.06-.33,5.15,1,5.36-5.72a19.35,19.35,0,0,0-2.3-10.37c-3-5.25-8.31-6.43-13.83-6.59a49.05,49.05,0,0,0-17.88,2.72c-4.13,1.47-4.1-1.57-5.09-3.73-1.37-3,1.33-2.64,2.74-3.27a74.61,74.61,0,0,1,34.16-6.37c15.84.73,24.6,9.63,24.61,25.38q0,8.68,0,17.36ZM259.5,342.66h0c0-3.17,0-6.33,0-9.5,0-1.52-.15-2.74-2.13-2.73-4.84,0-9.69.16-14.19,2.15-5.32,2.34-7.09,6.73-7.07,12.33,0,5.33,1.7,9.46,6.82,11.56,4.26,1.75,8.64,1.33,12.93,0,2.65-.83,4-2.54,3.64-5.55A81.22,81.22,0,0,1,259.5,342.66Z"/><path class="cls-1" d="M220.15,272.48c3.71-.25,5.67-3.21,7.83-5.5,6.48-6.88,12.76-13.87,16.87-22.63,6.64-14.15,8-29.22,8.47-44.44.47-14.09-1.75-27.9-5.23-41.53-.94-3.7-2-4-5.22-1.54-18.37,14-33.93,30.24-42.86,51.85-7.06,17.09-8,34.83-4.41,52.93a79.76,79.76,0,0,0,10.73,27.8c1.73,2.71,3.16,2.82,5.62,1.55,13.46-7,25.25-15.81,33.28-29a16.48,16.48,0,0,1,2-2.25c.11,2.84-1.71,4.64-2.95,6.76-6,10.21-14.62,17.55-24.46,23.83-3.11,2-6.11,4.1-9.41,5.79-1.79.93-2.75.88-4-.9a94.84,94.84,0,0,1-12.81-26.14c-4.52-14.16-4.91-28.53-2.91-43,3.45-25.13,16-45.73,32.69-64.17a185,185,0,0,1,25.94-23.77c2-1.53,2.75-1.36,3.13,1,2.76,17.12,5,34.29,5.11,51.68.07,14.92-.72,29.71-5.2,44.08-4.37,14.07-12.94,25.2-24.08,34.56-3.26,2.74-7,4.68-10.55,7.06-2.3,1.56-3.26,1-4.35-1.26-4.93-10.08-6-20.86-6.07-31.86-.18-26.22,9.58-48,29.06-65.53a3.8,3.8,0,0,1,2.45-1.27c-.19,3.6-2,6.68-3.32,9.87a218.8,218.8,0,0,0-8.86,24.15c-3,10.18-5.89,20.4-7.36,30.95C217.83,251.92,217.33,262.24,220.15,272.48Z"/><path class="cls-1" d="M163.92,208.7c.88-31.23,14-55.59,35-76.28,1.8-1.78,3-1.64,3.77.88a195.7,195.7,0,0,0,9.24,24.22c.75,1.57.25,2.44-.82,3.55-20.36,21.34-29.48,47-28.91,76.22.24,12.41,2.93,24.43,6.86,36.26,1.59,4.8,3.71,9.36,5.25,14.15.23.7,1.07,1.34,0,2-.67.43-1.16.5-1.68-.27-4.34-6.41-9.75-12-13.42-19-7.86-15-12.2-30.88-14.29-47.54A133.11,133.11,0,0,1,163.92,208.7Z"/><path class="cls-2" d="M220.15,272.48c-2.82-10.24-2.32-20.56-.89-30.94,1.47-10.55,4.38-20.77,7.36-30.95a218.8,218.8,0,0,1,8.86-24.15c1.35-3.19,3.13-6.27,3.32-9.87,3.52-3.72,4.1-3.75,5.19,1.34,2.67,12.54,4.39,25.23,3.27,38.11-1.9,21.82-12.63,39.58-26,56.11C221.05,272.38,220.52,272.37,220.15,272.48Z"/></svg>